<svg width="74" height="65" viewBox="0 0 74 65" fill="none" xmlns="http://www.w3.org/2000/svg">
<g clip-path="url(#clip0)">
<g opacity="0.5">
<path opacity="0.5" d="M11.2316 11.4078H10.9382V13.07H11.2316V11.4078Z" fill="#47E6B1"/>
<path opacity="0.5" d="M11.9161 12.3855V12.0922H10.254V12.3855H11.9161Z" fill="#47E6B1"/>
</g>
<g opacity="0.5">
<path opacity="0.5" d="M21.6582 47.5824H21.3649V49.2446H21.6582V47.5824Z" fill="#47E6B1"/>
<path opacity="0.5" d="M22.3417 48.5601V48.2668H20.6795V48.5601H22.3417Z" fill="#47E6B1"/>
</g>
<g opacity="0.5">
<path opacity="0.5" d="M7.06346 28.2751H6.77014V29.9373H7.06346V28.2751Z" fill="#47E6B1"/>
<path opacity="0.5" d="M7.74805 29.2529V28.9596H6.08589V29.2529H7.74805Z" fill="#47E6B1"/>
</g>
<g opacity="0.5">
<path opacity="0.5" d="M58.4167 0H58.1234V1.66216H58.4167V0Z" fill="#47E6B1"/>
<path opacity="0.5" d="M59.1012 0.977711V0.684387L57.439 0.684387V0.977711L59.1012 0.977711Z" fill="#47E6B1"/>
</g>
<g opacity="0.5">
<path opacity="0.5" d="M8.92296 4.13379H8.62964V5.79594H8.92296V4.13379Z" fill="#47E6B1"/>
<path opacity="0.5" d="M9.60657 5.1115V4.81818H7.94441V5.1115H9.60657Z" fill="#47E6B1"/>
</g>
<path opacity="0.5" d="M14.5427 41.6508C14.4619 41.6155 14.3969 41.5518 14.3601 41.4717C14.3232 41.3917 14.317 41.3008 14.3428 41.2165C14.3469 41.2037 14.3496 41.1904 14.3507 41.1769C14.3566 41.1369 14.3486 41.0961 14.328 41.0613C14.3074 41.0266 14.2755 40.9999 14.2376 40.9859C14.1998 40.9719 14.1582 40.9713 14.1199 40.9842C14.0816 40.9972 14.049 41.0229 14.0274 41.0571C14.0193 41.068 14.0125 41.0798 14.0072 41.0923C13.9719 41.1731 13.9082 41.2381 13.8281 41.275C13.748 41.3119 13.6572 41.318 13.5729 41.2923C13.56 41.2881 13.5467 41.2855 13.5333 41.2844C13.4933 41.2784 13.4525 41.2864 13.4177 41.307C13.383 41.3276 13.3563 41.3595 13.3423 41.3974C13.3282 41.4353 13.3276 41.4769 13.3406 41.5151C13.3536 41.5534 13.3793 41.5861 13.4135 41.6076C13.4244 41.6157 13.4362 41.6225 13.4487 41.6279C13.5295 41.6631 13.5945 41.7269 13.6314 41.8069C13.6682 41.887 13.6744 41.9778 13.6487 42.0621C13.6445 42.075 13.6418 42.0883 13.6407 42.1018C13.6348 42.1418 13.6428 42.1825 13.6634 42.2173C13.684 42.2521 13.7159 42.2787 13.7538 42.2928C13.7917 42.3068 13.8332 42.3074 13.8715 42.2944C13.9098 42.2815 13.9424 42.2557 13.964 42.2216C13.9721 42.2106 13.9789 42.1988 13.9843 42.1863C14.0195 42.1056 14.0833 42.0405 14.1633 42.0037C14.2434 41.9668 14.3342 41.9607 14.4185 41.9864C14.4314 41.9905 14.4447 41.9932 14.4582 41.9943C14.4981 42.0002 14.5389 41.9922 14.5737 41.9716C14.6085 41.9511 14.6351 41.9192 14.6492 41.8813C14.6632 41.8434 14.6638 41.8018 14.6508 41.7635C14.6379 41.7253 14.6121 41.6926 14.578 41.671C14.567 41.663 14.5552 41.6562 14.5427 41.6508Z" fill="#4D8AF0"/>
<path opacity="0.5" d="M13.0893 57.4487C13.0085 57.4134 12.9435 57.3497 12.9067 57.2696C12.8698 57.1896 12.8636 57.0987 12.8894 57.0144C12.8935 57.0016 12.8962 56.9883 12.8973 56.9748C12.9032 56.9348 12.8952 56.894 12.8746 56.8593C12.8541 56.8245 12.8221 56.7978 12.7842 56.7838C12.7464 56.7698 12.7048 56.7692 12.6665 56.7821C12.6282 56.7951 12.5956 56.8208 12.574 56.855C12.5659 56.8659 12.5591 56.8778 12.5538 56.8902C12.5187 56.971 12.4552 57.036 12.3753 57.0731C12.2954 57.1101 12.2047 57.1165 12.1204 57.0911C12.1075 57.0869 12.0942 57.0843 12.0808 57.0831C12.0408 57.0772 12 57.0852 11.9652 57.1058C11.9304 57.1264 11.9038 57.1583 11.8898 57.1962C11.8757 57.2341 11.8751 57.2756 11.8881 57.3139C11.9011 57.3522 11.9268 57.3848 11.961 57.4064C11.9719 57.4145 11.9837 57.4213 11.9962 57.4267C12.077 57.4619 12.142 57.5257 12.1789 57.6057C12.2157 57.6858 12.2219 57.7766 12.1961 57.8609C12.192 57.8738 12.1893 57.8871 12.1882 57.9006C12.1823 57.9405 12.1903 57.9813 12.2109 58.0161C12.2315 58.0509 12.2634 58.0775 12.3013 58.0916C12.3392 58.1056 12.3807 58.1062 12.419 58.0932C12.4573 58.0803 12.4899 58.0545 12.5115 58.0204C12.5196 58.0094 12.5264 57.9976 12.5318 57.9851C12.567 57.9043 12.6307 57.8393 12.7108 57.8025C12.7909 57.7656 12.8817 57.7594 12.966 57.7852C12.9789 57.7893 12.9922 57.792 13.0056 57.7931C13.0456 57.799 13.0864 57.791 13.1212 57.7704C13.156 57.7498 13.1826 57.7179 13.1966 57.68C13.2107 57.6422 13.2113 57.6006 13.1983 57.5623C13.1853 57.524 13.1596 57.4914 13.1254 57.4698C13.1143 57.4614 13.1022 57.4543 13.0893 57.4487Z" fill="#4D8AF0"/>
<path opacity="0.5" d="M66.5567 22.4792C66.4759 22.4439 66.4109 22.3802 66.3741 22.3001C66.3372 22.22 66.3311 22.1292 66.3568 22.0449C66.3609 22.032 66.3636 22.0187 66.3647 22.0053C66.3706 21.9653 66.3626 21.9245 66.342 21.8897C66.3215 21.8549 66.2895 21.8283 66.2517 21.8143C66.2138 21.8002 66.1722 21.7996 66.1339 21.8126C66.0957 21.8256 66.063 21.8513 66.0414 21.8855C66.0334 21.8964 66.0265 21.9082 66.0212 21.9207C65.9861 22.0014 65.9226 22.0665 65.8427 22.1035C65.7628 22.1405 65.6721 22.147 65.5878 22.1215C65.5749 22.1174 65.5616 22.1147 65.5482 22.1136C65.5082 22.1077 65.4674 22.1157 65.4326 22.1363C65.3979 22.1569 65.3712 22.1888 65.3572 22.2267C65.3431 22.2645 65.3425 22.3061 65.3555 22.3444C65.3685 22.3827 65.3942 22.4153 65.4284 22.4369C65.4393 22.445 65.4511 22.4518 65.4636 22.4571C65.5444 22.4924 65.6094 22.5561 65.6463 22.6362C65.6831 22.7163 65.6893 22.8071 65.6636 22.8914C65.6594 22.9043 65.6567 22.9176 65.6556 22.931C65.6497 22.971 65.6577 23.0118 65.6783 23.0466C65.6989 23.0813 65.7308 23.108 65.7687 23.122C65.8066 23.1361 65.8481 23.1367 65.8864 23.1237C65.9247 23.1107 65.9573 23.085 65.9789 23.0508C65.987 23.0399 65.9938 23.0281 65.9992 23.0156C66.0344 22.9348 66.0982 22.8698 66.1782 22.8329C66.2583 22.7961 66.3491 22.7899 66.4334 22.8156C66.4463 22.8198 66.4596 22.8225 66.4731 22.8236C66.513 22.8295 66.5538 22.8215 66.5886 22.8009C66.6234 22.7803 66.65 22.7484 66.664 22.7105C66.6781 22.6726 66.6787 22.6311 66.6657 22.5928C66.6528 22.5545 66.627 22.5219 66.5928 22.5003C66.5817 22.4918 66.5696 22.4847 66.5567 22.4792Z" fill="#4D8AF0"/>
<path opacity="0.5" d="M64.137 39.1571C64.0562 39.1218 63.9912 39.0581 63.9543 38.978C63.9175 38.8979 63.9113 38.8071 63.937 38.7228C63.9412 38.71 63.9438 38.6966 63.945 38.6832C63.9509 38.6432 63.9429 38.6024 63.9223 38.5676C63.9017 38.5329 63.8698 38.5062 63.8319 38.4922C63.794 38.4781 63.7524 38.4775 63.7142 38.4905C63.6759 38.5035 63.6432 38.5292 63.6217 38.5634C63.6136 38.5743 63.6068 38.5861 63.6014 38.5986C63.5662 38.6794 63.5024 38.7444 63.4224 38.7813C63.3423 38.8181 63.2515 38.8243 63.1672 38.7986C63.1543 38.7944 63.141 38.7918 63.1275 38.7906C63.0875 38.7847 63.0467 38.7927 63.012 38.8133C62.9772 38.8339 62.9506 38.8658 62.9365 38.9037C62.9225 38.9416 62.9219 38.9832 62.9348 39.0214C62.9478 39.0597 62.9735 39.0924 63.0077 39.1139C63.0186 39.122 63.0305 39.1288 63.043 39.1342C63.1237 39.1694 63.1887 39.2332 63.2256 39.3132C63.2625 39.3933 63.2686 39.4841 63.2429 39.5684C63.2388 39.5813 63.2361 39.5946 63.235 39.6081C63.2291 39.648 63.2371 39.6888 63.2577 39.7236C63.2782 39.7584 63.3101 39.785 63.348 39.7991C63.3859 39.8131 63.4275 39.8137 63.4658 39.8007C63.504 39.7878 63.5367 39.762 63.5583 39.7279C63.5663 39.7169 63.5731 39.7051 63.5785 39.6926C63.6138 39.6118 63.6775 39.5468 63.7576 39.51C63.8376 39.4731 63.9285 39.4669 64.0128 39.4927C64.0256 39.4968 64.0389 39.4995 64.0524 39.5006C64.0924 39.5065 64.1332 39.4985 64.168 39.4779C64.2027 39.4573 64.2294 39.4254 64.2434 39.3875C64.2575 39.3497 64.2581 39.3081 64.2451 39.2698C64.2321 39.2315 64.2064 39.1989 64.1722 39.1773C64.1613 39.1692 64.1495 39.1624 64.137 39.1571Z" fill="#4D8AF0"/>
<path opacity="0.5" d="M65.9401 5.92019C65.8593 5.88493 65.7943 5.8212 65.7574 5.74113C65.7206 5.66107 65.7144 5.57025 65.7401 5.48594C65.7443 5.47307 65.7469 5.45977 65.7481 5.4463C65.754 5.40632 65.746 5.36553 65.7254 5.33076C65.7048 5.29598 65.6729 5.26934 65.635 5.2553C65.5971 5.24126 65.5555 5.24067 65.5173 5.25363C65.479 5.2666 65.4463 5.29232 65.4248 5.3265C65.4167 5.33743 65.4099 5.34925 65.4045 5.36174C65.3693 5.44252 65.3055 5.50753 65.2255 5.54439C65.1454 5.58126 65.0546 5.58742 64.9703 5.56169C64.9574 5.55753 64.9441 5.55487 64.9306 5.55376C64.8906 5.54784 64.8499 5.55585 64.8151 5.57643C64.7803 5.59701 64.7537 5.62892 64.7396 5.66682C64.7256 5.70471 64.725 5.74627 64.7379 5.78455C64.7509 5.82282 64.7766 5.85547 64.8108 5.87703C64.8217 5.88512 64.8336 5.89192 64.8461 5.89729C64.9268 5.93256 64.9918 5.99628 65.0287 6.07635C65.0656 6.15642 65.0717 6.24724 65.046 6.33155C65.0419 6.34441 65.0392 6.35771 65.0381 6.37119C65.0322 6.41116 65.0402 6.45195 65.0608 6.48673C65.0813 6.5215 65.1132 6.54814 65.1511 6.56218C65.189 6.57622 65.2306 6.57681 65.2689 6.56385C65.3071 6.55089 65.3398 6.52516 65.3614 6.49098C65.3694 6.48006 65.3762 6.46824 65.3816 6.45575C65.4169 6.37496 65.4806 6.30996 65.5607 6.27309C65.6408 6.23622 65.7316 6.23007 65.8159 6.2558C65.8288 6.25995 65.842 6.26261 65.8555 6.26372C65.8955 6.26964 65.9363 6.26164 65.9711 6.24106C66.0058 6.22047 66.0325 6.18856 66.0465 6.15067C66.0606 6.11278 66.0612 6.07121 66.0482 6.03294C66.0352 5.99467 66.0095 5.96201 65.9753 5.94045C65.9644 5.93236 65.9526 5.92556 65.9401 5.92019Z" fill="#4D8AF0"/>
<path opacity="0.5" d="M71.5969 49.2622C71.5161 49.2269 71.4511 49.1632 71.4143 49.0831C71.3774 49.003 71.3712 48.9122 71.397 48.8279C71.4011 48.815 71.4038 48.8018 71.4049 48.7883C71.4108 48.7483 71.4028 48.7075 71.3822 48.6727C71.3616 48.638 71.3297 48.6113 71.2918 48.5973C71.2539 48.5832 71.2124 48.5827 71.1741 48.5956C71.1358 48.6086 71.1032 48.6343 71.0816 48.6685C71.0735 48.6794 71.0667 48.6912 71.0614 48.7037C71.0261 48.7845 70.9624 48.8495 70.8823 48.8864C70.8022 48.9232 70.7114 48.9294 70.6271 48.9037C70.6142 48.8995 70.6009 48.8969 70.5875 48.8957C70.5475 48.8898 70.5067 48.8978 70.4719 48.9184C70.4372 48.939 70.4105 48.9709 70.3965 49.0088C70.3824 49.0467 70.3818 49.0882 70.3948 49.1265C70.4078 49.1648 70.4335 49.1974 70.4677 49.219C70.4786 49.2271 70.4904 49.2339 70.5029 49.2393C70.5837 49.2745 70.6487 49.3383 70.6856 49.4183C70.7224 49.4984 70.7286 49.5892 70.7029 49.6735C70.6987 49.6864 70.696 49.6997 70.6949 49.7132C70.689 49.7531 70.697 49.7939 70.7176 49.8287C70.7382 49.8635 70.7701 49.8901 70.808 49.9042C70.8459 49.9182 70.8874 49.9188 70.9257 49.9058C70.964 49.8929 70.9966 49.8671 71.0182 49.833C71.0263 49.822 71.0331 49.8102 71.0385 49.7977C71.0737 49.7169 71.1374 49.6519 71.2175 49.6151C71.2976 49.5782 71.3884 49.572 71.4727 49.5978C71.4856 49.6019 71.4989 49.6046 71.5124 49.6057C71.5523 49.6116 71.5931 49.6036 71.6279 49.583C71.6627 49.5624 71.6893 49.5305 71.7033 49.4926C71.7174 49.4548 71.718 49.4132 71.705 49.3749C71.6921 49.3366 71.6663 49.304 71.6321 49.2824C71.6212 49.2743 71.6094 49.2675 71.5969 49.2622Z" fill="#4D8AF0"/>
<path opacity="0.5" d="M0.586643 23.2931C0.910637 23.2931 1.17329 23.0304 1.17329 22.7065C1.17329 22.3825 0.910637 22.1198 0.586643 22.1198C0.262649 22.1198 0 22.3825 0 22.7065C0 23.0304 0.262649 23.2931 0.586643 23.2931Z" fill="#F55F44"/>
<path opacity="0.5" d="M66.0484 13.4549C66.3724 13.4549 66.6351 13.1923 66.6351 12.8683C66.6351 12.5443 66.3724 12.2816 66.0484 12.2816C65.7244 12.2816 65.4618 12.5443 65.4618 12.8683C65.4618 13.1923 65.7244 13.4549 66.0484 13.4549Z" fill="#F55F44"/>
<path opacity="0.5" d="M39.3667 35.5386C39.7316 35.5386 40.0273 35.2429 40.0273 34.878C40.0273 34.5131 39.7316 34.2173 39.3667 34.2173C39.0018 34.2173 38.7061 34.5131 38.7061 34.878C38.7061 35.2429 39.0018 35.5386 39.3667 35.5386Z" fill="#F55F44"/>
<path opacity="0.5" d="M39.3667 35.5386C39.7316 35.5386 40.0273 35.2429 40.0273 34.878C40.0273 34.5131 39.7316 34.2173 39.3667 34.2173C39.0018 34.2173 38.7061 34.5131 38.7061 34.878C38.7061 35.2429 39.0018 35.5386 39.3667 35.5386Z" fill="#F55F44"/>
<path opacity="0.5" d="M73.3348 31.0938C73.6588 31.0938 73.9215 30.8312 73.9215 30.5072C73.9215 30.1832 73.6588 29.9205 73.3348 29.9205C73.0108 29.9205 72.7482 30.1832 72.7482 30.5072C72.7482 30.8312 73.0108 31.0938 73.3348 31.0938Z" fill="#F55F44"/>
<path opacity="0.5" d="M25.9119 4.82438C26.2767 4.82438 26.5725 4.52861 26.5725 4.16375C26.5725 3.79889 26.2767 3.50311 25.9119 3.50311C25.547 3.50311 25.2512 3.79889 25.2512 4.16375C25.2512 4.52861 25.547 4.82438 25.9119 4.82438Z" fill="#47E6B1"/>
<path opacity="0.5" d="M63.5521 55.3232C63.8761 55.3232 64.1387 55.0606 64.1387 54.7366C64.1387 54.4126 63.8761 54.15 63.5521 54.15C63.2281 54.15 62.9655 54.4126 62.9655 54.7366C62.9655 55.0606 63.2281 55.3232 63.5521 55.3232Z" fill="#F55F44"/>
<path d="M27.0156 33.6078C26.6685 34.7344 27.1917 36.0662 28.2074 36.659C28.6337 36.9074 29.1243 37.0325 29.5374 37.3021C30.435 37.8869 30.7891 39.0065 31.0807 40.0371C31.4154 41.2218 31.751 42.4744 31.4445 43.6662C31.2489 44.4263 30.8041 45.0984 30.5513 45.8419C30.3399 46.4646 30.2662 47.1258 30.3355 47.7797C30.3725 48.1268 30.4588 48.4844 30.6966 48.7434C31.0402 49.1133 31.5933 49.1688 32.0901 49.2578C33.1404 49.4564 34.1287 49.9012 34.9739 50.5556C35.8191 51.21 36.4971 52.0554 36.9524 53.0225" stroke="url(#paint0_linear)" stroke-width="1.80294" stroke-miterlimit="10"/>
<path d="M27.1221 33.6078C26.7751 34.7344 27.2983 36.0662 28.3139 36.659C28.7403 36.9074 29.2309 37.0325 29.644 37.3021C30.5416 37.8869 30.8957 39.0065 31.1873 40.0371C31.522 41.2218 31.8576 42.4744 31.551 43.6662C31.3555 44.4263 30.9107 45.0984 30.6579 45.8419C30.4464 46.4646 30.3728 47.1258 30.4421 47.7797C30.4791 48.1268 30.5654 48.4844 30.8032 48.7434C31.1467 49.1133 31.6999 49.1688 32.1967 49.2578C33.247 49.4564 34.2353 49.9012 35.0805 50.5556C35.9257 51.21 36.6037 52.0554 37.059 53.0225" stroke="#535461" stroke-width="1.80294" stroke-miterlimit="10"/>
<path d="M40.259 25.1869C39.4028 26.3804 38.514 27.6638 38.4409 29.1313C38.329 31.3854 40.1321 33.229 40.9372 35.3377C41.2861 36.2666 41.4441 37.2564 41.4015 38.2477C41.359 39.2391 41.1169 40.2117 40.6897 41.1073C40.2968 41.9194 39.7366 42.7263 39.8088 43.6256C39.8502 44.1744 40.1251 44.6738 40.3462 45.1785C40.8888 46.4435 41.1256 47.8185 41.0373 49.1921C40.949 50.5657 40.5381 51.8991 39.8379 53.0841" stroke="url(#paint1_linear)" stroke-width="1.80294" stroke-miterlimit="10"/>
<path d="M40.3647 25.1869C39.5094 26.3848 38.6206 27.6647 38.5457 29.1313C38.4339 31.3854 40.237 33.229 41.0421 35.3377C41.391 36.2666 41.5489 37.2564 41.5064 38.2477C41.4639 39.2391 41.2218 40.2117 40.7946 41.1073C40.4017 41.9194 39.8415 42.7263 39.9137 43.6256C39.9551 44.1744 40.2299 44.6738 40.451 45.1785C40.9937 46.4435 41.2304 47.8185 41.1421 49.1921C41.0538 50.5657 40.6429 51.8991 39.9428 53.0841" stroke="#535461" stroke-width="1.80294" stroke-miterlimit="10"/>
<path d="M52.272 35.9226L52.686 39.2971C52.7406 39.7455 52.7873 40.2344 52.5468 40.6184C52.3187 40.9804 51.8906 41.1531 51.5576 41.4209C50.4645 42.3017 50.564 43.985 50.941 45.3362C51.318 46.6874 51.8606 48.1391 51.3365 49.4392C51.1199 49.9756 50.7376 50.4275 50.4557 50.9314C49.9721 51.7924 49.7805 52.7869 49.9096 53.7659" stroke="url(#paint2_linear)" stroke-width="1.80294" stroke-miterlimit="10"/>
<path d="M52.3751 35.9226L52.7891 39.2971C52.8438 39.7455 52.8904 40.2344 52.65 40.6184C52.4218 40.9804 51.9937 41.1531 51.6608 41.4209C50.5676 42.3017 50.6672 43.985 51.0442 45.3362C51.4212 46.6874 51.9638 48.1391 51.4397 49.4392C51.223 49.9756 50.8407 50.4275 50.5588 50.9314C50.0753 51.7924 49.8836 52.7869 50.0127 53.7659" stroke="#535461" stroke-width="1.80294" stroke-miterlimit="10"/>
<g opacity="0.7">
<path opacity="0.7" d="M63.0069 22.0529C63.0062 20.4742 62.6319 18.918 61.9147 17.5116C61.1976 16.1052 60.1578 14.8885 58.8804 13.9608C57.603 13.0331 56.1243 12.4209 54.565 12.174C53.0057 11.9272 51.4102 12.0528 49.9087 12.5406C49.9913 11.9785 50.034 11.4113 50.0364 10.8432C50.0404 8.25045 49.0372 5.75751 47.2384 3.89019C45.4397 2.02286 42.986 0.927144 40.3949 0.83414C37.8038 0.741136 35.2779 1.65812 33.3499 3.39167C31.4219 5.12523 30.2426 7.53983 30.0606 10.1262C28.5588 9.63737 26.9626 9.51098 25.4025 9.75737C23.8425 10.0038 22.3629 10.6159 21.0848 11.5438C19.8067 12.4717 18.7664 13.689 18.049 15.096C17.3316 16.5031 16.9575 18.0599 16.9572 19.6393C16.9572 24.6602 20.6567 31.795 25.4705 33.059L26.2201 33.4871L25.8132 34.8815H28.2232L27.6999 33.4853L28.446 33.059C32.1685 32.0822 35.2206 27.5978 36.4159 23.2966C37.0703 23.7322 37.7907 24.0594 38.5493 24.2655L39.2989 24.6936L38.8981 26.0845H41.3081L40.7849 24.6883L41.531 24.262C42.0839 24.1133 42.6164 23.897 43.1165 23.6181C43.7604 28.4434 47.186 34.3345 51.5207 35.4717L52.2703 35.8997L51.8633 37.2941H54.2733L53.7483 35.898L54.4944 35.4717C59.3117 34.2076 63.0069 27.0701 63.0069 22.0529Z" fill="url(#paint3_linear)"/>
</g>
<path d="M28.6063 34.3654H26.2738L26.6825 32.9666H28.0813L28.6063 34.3654Z" fill="#F55F44"/>
<path d="M37.0589 19.6164C37.0589 24.9614 32.726 32.7912 27.3819 32.7912C22.0378 32.7912 17.705 24.9605 17.705 19.6164C17.705 17.0498 18.7245 14.5883 20.5394 12.7735C22.3543 10.9586 24.8158 9.93903 27.3824 9.93903C29.949 9.93903 32.4105 10.9586 34.2253 12.7735C36.0402 14.5883 37.0598 17.0498 37.0598 19.6164H37.0589Z" fill="#F55F44"/>
<path d="M28.0813 33.0247H26.6825L25.866 32.5587H28.8978L28.0813 33.0247Z" fill="#535461"/>
<path opacity="0.1" d="M23.8842 12.0958C23.8842 12.0958 19.8032 14.3111 19.2201 18.7418L23.8842 12.0958Z" fill="white"/>
<path d="M41.2614 25.8581H38.929L39.3377 24.4593H40.7364L41.2614 25.8581Z" fill="#4D8AF0"/>
<path d="M49.714 11.1092C49.714 16.4542 45.3812 24.284 40.0371 24.284C34.693 24.284 30.3601 16.4533 30.3601 11.1092C30.3601 8.54262 31.3797 6.08114 33.1946 4.26627C35.0094 2.4514 37.4709 1.43182 40.0375 1.43182C42.6041 1.43182 45.0656 2.4514 46.8805 4.26627C48.6953 6.08114 49.7149 8.54262 49.7149 11.1092H49.714Z" fill="#6C63FF"/>
<path d="M40.7365 24.5174H39.3377L38.5211 24.0506H41.553L40.7365 24.5174Z" fill="#535461"/>
<path opacity="0.1" d="M36.5393 3.58856C36.5393 3.58856 32.4584 5.80389 31.8752 10.2345L36.5393 3.58856Z" fill="white"/>
<path d="M53.8099 36.7057H51.4774L51.8861 35.306H53.2849L53.8099 36.7057Z" fill="#3AD29F"/>
<path d="M62.2625 21.9559C62.2625 27.3009 57.9297 35.1307 52.5856 35.1307C47.2415 35.1307 42.9077 27.3009 42.9077 21.9559C42.9077 19.3893 43.9273 16.9278 45.7422 15.113C47.557 13.2981 50.0185 12.2785 52.5851 12.2785C55.1517 12.2785 57.6132 13.2981 59.4281 15.113C61.243 16.9278 62.2625 19.3893 62.2625 21.9559Z" fill="#3AD29F"/>
<path d="M53.2849 35.3642H51.8861L51.0696 34.8982H54.1015L53.2849 35.3642Z" fill="#535461"/>
<path opacity="0.1" d="M49.0878 14.4353C49.0878 14.4353 45.0068 16.6506 44.4237 21.0813L49.0878 14.4353Z" fill="white"/>
<g opacity="0.5">
<path opacity="0.5" d="M45.4876 38.3547C44.9265 37.7918 44.1082 37.5681 43.1833 37.724C42.3183 37.8702 41.4525 38.3406 40.746 39.0452C40.5414 39.251 40.3694 39.4869 40.236 39.7446C40.1061 39.4782 39.9356 39.2336 39.7304 39.0197C39.0363 38.3018 38.1784 37.8182 37.3125 37.6597C36.3911 37.4835 35.5693 37.6976 34.9976 38.2507C34.426 38.8039 34.1917 39.6187 34.3344 40.5453C34.4682 41.4121 34.9245 42.285 35.6195 43.0011C37.08 44.5082 39.9947 43.9198 40.118 43.8934L40.1541 43.8855L40.266 43.911C40.3893 43.9392 43.2934 44.5778 44.7794 43.0962C45.4841 42.3916 45.9571 41.5275 46.1069 40.6625C46.2698 39.7367 46.0487 38.9184 45.4876 38.3547ZM39.6282 43.0231C38.9236 43.1183 37.168 43.2469 36.2969 42.3475C35.7367 41.7688 35.3702 41.0782 35.2654 40.4009C35.1703 39.7843 35.3077 39.2558 35.6547 38.9228C35.7902 38.7928 35.9522 38.6937 36.1295 38.6321C36.4574 38.5262 36.8074 38.5085 37.1443 38.581C37.8172 38.707 38.4972 39.0946 39.0575 39.6733C39.9286 40.5665 39.7454 42.3211 39.6282 43.0223V43.0231ZM45.1873 40.503C45.071 41.1778 44.6931 41.8631 44.1223 42.4312C43.2353 43.3121 41.4798 43.1561 40.7795 43.0478C40.6747 42.3431 40.5214 40.5911 41.4084 39.7068C41.9792 39.1386 42.6654 38.7625 43.3401 38.6497C43.6782 38.5831 44.028 38.6068 44.354 38.7185C44.5306 38.7831 44.691 38.8853 44.8244 39.0179C45.1644 39.3588 45.293 39.8856 45.1873 40.5022V40.503Z" fill="url(#paint4_linear)"/>
</g>
<path d="M40.4043 43.7013L40.1269 43.7595C40.0088 43.7841 37.2201 44.347 35.8222 42.9051C35.158 42.2198 34.7211 41.3847 34.589 40.555C34.4516 39.668 34.6771 38.8884 35.2232 38.359C35.7693 37.8296 36.5559 37.6288 37.4376 37.7935C38.263 37.9477 39.0839 38.4101 39.7481 39.0963C41.1451 40.5382 40.4951 43.3085 40.4669 43.4256L40.4043 43.7013ZM36.3058 38.7255C36.1359 38.7844 35.9809 38.8793 35.8512 39.0038C35.52 39.3253 35.3879 39.8274 35.4786 40.4184C35.5791 41.0659 35.9296 41.7274 36.4661 42.2814C37.3002 43.142 38.98 43.0187 39.6539 42.928C39.7657 42.2576 39.9419 40.5823 39.1077 39.7217C38.5713 39.1685 37.9212 38.7968 37.2765 38.677C36.9543 38.6075 36.6194 38.6242 36.3058 38.7255Z" fill="#6C63FF"/>
<path d="M39.9923 43.7137L39.9306 43.4372C39.9042 43.3191 39.3017 40.5383 40.7234 39.121C41.3998 38.4472 42.2278 37.9988 43.0558 37.8588C43.9367 37.709 44.7233 37.9231 45.2579 38.4621C45.7926 39.0012 46.0067 39.7834 45.8543 40.6643C45.7116 41.4914 45.2606 42.3185 44.5841 42.9923C43.1624 44.4096 40.3834 43.7983 40.268 43.7719L39.9923 43.7137ZM44.1763 38.8048C43.8647 38.698 43.5305 38.6752 43.2073 38.7387C42.5608 38.848 41.9046 39.2082 41.3576 39.7517C40.5084 40.5982 40.6529 42.2753 40.756 42.9483C41.428 43.0505 43.106 43.2029 43.9543 42.3572C44.5004 41.8129 44.8616 41.1575 44.9734 40.5075C45.0747 39.9182 44.9514 39.4135 44.6255 39.0867C44.4977 38.9615 44.3445 38.8654 44.1763 38.8048Z" fill="#6C63FF"/>
<g opacity="0.5">
<path opacity="0.5" d="M53.5932 42.973H26.5504V48.384H27.9554V64.0445H52.1883V48.384H53.5932V42.973Z" fill="url(#paint5_linear)"/>
</g>
<path d="M51.8818 44.6087H28.262V63.7785H51.8818V44.6087Z" fill="#535461"/>
<path d="M42.2965 48.0316H37.8464V63.7776H42.2965V48.0316Z" fill="#6C63FF"/>
<path opacity="0.1" d="M51.8818 43.5816H28.262V48.3743H51.8818V43.5816Z" fill="black"/>
<path d="M53.2515 43.239H26.8931V48.0316H53.2515V43.239Z" fill="#535461"/>
<path d="M42.2965 43.239H37.8464V48.0316H42.2965V43.239Z" fill="#6C63FF"/>
</g>
<defs>
<linearGradient id="paint0_linear" x1="26.82" y1="43.3173" x2="37.0317" y2="43.3173" gradientUnits="userSpaceOnUse">
<stop stop-color="#808080" stop-opacity="0.25"/>
<stop offset="0.54" stop-color="#808080" stop-opacity="0.12"/>
<stop offset="1" stop-color="#808080" stop-opacity="0.1"/>
</linearGradient>
<linearGradient id="paint1_linear" x1="1868.7" y1="14830.8" x2="1974.96" y2="14830.8" gradientUnits="userSpaceOnUse">
<stop stop-color="#808080" stop-opacity="0.25"/>
<stop offset="0.54" stop-color="#808080" stop-opacity="0.12"/>
<stop offset="1" stop-color="#808080" stop-opacity="0.1"/>
</linearGradient>
<linearGradient id="paint2_linear" x1="2181.63" y1="10662.7" x2="2280.4" y2="10662.7" gradientUnits="userSpaceOnUse">
<stop stop-color="#808080" stop-opacity="0.25"/>
<stop offset="0.54" stop-color="#808080" stop-opacity="0.12"/>
<stop offset="1" stop-color="#808080" stop-opacity="0.1"/>
</linearGradient>
<linearGradient id="paint3_linear" x1="29227.2" y1="18593.2" x2="29227.2" y2="3502.33" gradientUnits="userSpaceOnUse">
<stop stop-color="#808080" stop-opacity="0.25"/>
<stop offset="0.54" stop-color="#808080" stop-opacity="0.12"/>
<stop offset="1" stop-color="#808080" stop-opacity="0.1"/>
</linearGradient>
<linearGradient id="paint4_linear" x1="7593.97" y1="3835.4" x2="7593.97" y2="3359.87" gradientUnits="userSpaceOnUse">
<stop stop-color="#808080" stop-opacity="0.25"/>
<stop offset="0.54" stop-color="#808080" stop-opacity="0.12"/>
<stop offset="1" stop-color="#808080" stop-opacity="0.1"/>
</linearGradient>
<linearGradient id="paint5_linear" x1="12328.9" y1="15363.7" x2="12328.9" y2="10323" gradientUnits="userSpaceOnUse">
<stop stop-color="#808080" stop-opacity="0.25"/>
<stop offset="0.54" stop-color="#808080" stop-opacity="0.12"/>
<stop offset="1" stop-color="#808080" stop-opacity="0.1"/>
</linearGradient>
<clipPath id="clip0">
<rect width="73.9206" height="64.0445" fill="white"/>
</clipPath>
</defs>
</svg>
