<svg width="156" height="129" viewBox="0 0 156 129" fill="none" xmlns="http://www.w3.org/2000/svg">
<g clip-path="url(#clip0)">
<path d="M146.026 128.211V113.769C146.026 113.769 151.654 124.008 146.026 128.211Z" fill="#F1F1F1"/>
<path d="M146.373 128.208L135.734 118.442C135.734 118.442 147.083 121.22 146.373 128.208Z" fill="#F1F1F1"/>
<path d="M47.5997 4.39902C48.8144 4.39902 49.7992 3.41427 49.7992 2.19951C49.7992 0.984755 48.8144 0 47.5997 0C46.3849 0 45.4001 0.984755 45.4001 2.19951C45.4001 3.41427 46.3849 4.39902 47.5997 4.39902Z" fill="#F1F1F1"/>
<path d="M42.0097 9.98893C43.2244 9.98893 44.2092 9.00417 44.2092 7.78942C44.2092 6.57466 43.2244 5.5899 42.0097 5.5899C40.7949 5.5899 39.8102 6.57466 39.8102 7.78942C39.8102 9.00417 40.7949 9.98893 42.0097 9.98893Z" fill="#F1F1F1"/>
<path d="M40.6122 109.21C41.827 109.21 42.8117 108.225 42.8117 107.01C42.8117 105.796 41.827 104.811 40.6122 104.811C39.3975 104.811 38.4127 105.796 38.4127 107.01C38.4127 108.225 39.3975 109.21 40.6122 109.21Z" fill="#F1F1F1"/>
<path d="M115.805 125.603H113.413L113.276 116.519L115.805 116.376V125.603Z" fill="#9F616A"/>
<path d="M116.418 127.925L108.699 127.924V127.825C108.7 127.028 109.017 126.264 109.581 125.701C110.144 125.138 110.908 124.821 111.704 124.82H116.418V127.925Z" fill="#2F2E41"/>
<path d="M129.5 122.847L127.307 123.803L123.551 115.53L125.813 114.388L129.5 122.847Z" fill="#9F616A"/>
<path d="M123.914 127.815L123.874 127.723C123.716 127.361 123.631 126.972 123.624 126.578C123.617 126.183 123.687 125.791 123.832 125.424C123.976 125.056 124.191 124.721 124.465 124.437C124.739 124.153 125.066 123.926 125.428 123.768L129.748 121.884L130.989 124.73L123.914 127.815Z" fill="#2F2E41"/>
<path d="M120.056 53.8952C122.919 53.8952 125.24 51.5744 125.24 48.7115C125.24 45.8486 122.919 43.5278 120.056 43.5278C117.194 43.5278 114.873 45.8486 114.873 48.7115C114.873 51.5744 117.194 53.8952 120.056 53.8952Z" fill="#9F616A"/>
<path d="M129.335 118.51L122.635 102.143L125.889 86.829L119.716 86.494L116.318 103.627L124.884 120.616L129.335 118.51Z" fill="#2F2E41"/>
<path d="M122.013 83.7661L118.855 103.34L117.905 122.1L112.452 122.052L112.25 86.159L122.013 83.7661Z" fill="#2F2E41"/>
<path d="M126.346 84.8823L126.035 87.7174L110.579 88.409L111.626 84.1461L126.346 84.8823Z" fill="#CBCBCB"/>
<path d="M111.649 90.2343C111.501 90.0481 111.392 89.8345 111.327 89.6058C111.263 89.3771 111.244 89.1378 111.273 88.9018C111.301 88.6659 111.376 88.4379 111.493 88.2312C111.611 88.0244 111.768 87.843 111.955 87.6973C112.034 87.6364 112.118 87.5819 112.205 87.5344L118.267 64.7535L121.861 66.3327L114.739 88.347C114.909 88.7159 114.949 89.1312 114.853 89.5257C114.757 89.9201 114.53 90.2705 114.209 90.5198C113.831 90.8188 113.35 90.9565 112.871 90.903C112.391 90.8495 111.952 90.6093 111.649 90.2343Z" fill="#9F616A"/>
<path d="M115.481 58.8847L116.196 57.4078C116.196 57.4078 119.716 54.3644 123.429 56.1888L124.002 57.8937L127.03 62.7842L126.346 85.3731C126.346 85.3731 113.711 84.4123 110.579 85.557L111.956 67.6575L115.481 58.8847Z" fill="#3F3D56"/>
<path d="M116.138 87.5527L110.803 86.0605L115.737 70.6411L116.184 62.0323C116.21 61.5974 116.326 61.1729 116.527 60.786C116.727 60.3991 117.006 60.0586 117.346 59.7864C117.756 59.4544 118.23 59.2106 118.738 59.0704C119.247 58.9303 119.779 58.8968 120.3 58.972C122.044 59.2107 123.326 60.5437 123.35 62.1416L123.35 62.1494L123.349 62.1571L121.635 74.2238L121.086 76.188L116.138 87.5527Z" fill="#CBCBCB"/>
<path d="M122.406 52.7746L123.586 53.073L125.375 51.1717C125.375 51.1717 128.661 43.5473 121.397 42.3805C114.132 41.2138 115.719 44.1593 114.747 46.0065L117.716 46.7783L120.387 49.5093C120.387 49.5093 122.131 48.2324 122.644 49.3906C123.156 50.5487 122.406 52.7746 122.406 52.7746Z" fill="#2F2E41"/>
<path d="M81.0726 96.9948H0V15.9222H81.0726V96.9948Z" fill="white"/>
<path d="M81.0726 96.9948H0V15.9222H81.0726V96.9948ZM1.19784 95.797H79.8747V17.1201H1.19784V95.797Z" fill="#E5E5E5"/>
<path d="M68.7105 50.7743H16.7161V52.6097H68.7105V50.7743Z" fill="#536DFE"/>
<path d="M68.7105 55.5464H16.7161V57.3818H68.7105V55.5464Z" fill="#536DFE"/>
<path d="M68.7105 60.3185H16.7161V62.1539H68.7105V60.3185Z" fill="#536DFE"/>
<path d="M13.56 53.1587C14.2216 53.1587 14.7579 52.6224 14.7579 51.9609C14.7579 51.2994 14.2216 50.7631 13.56 50.7631C12.8985 50.7631 12.3622 51.2994 12.3622 51.9609C12.3622 52.6224 12.8985 53.1587 13.56 53.1587Z" fill="#536DFE"/>
<path d="M68.7105 30.2114H16.7161V32.0468H68.7105V30.2114Z" fill="#E5E5E5"/>
<path d="M68.7105 34.9835H16.7161V36.8189H68.7105V34.9835Z" fill="#E5E5E5"/>
<path d="M68.7105 39.7556H16.7161V41.591H68.7105V39.7556Z" fill="#E5E5E5"/>
<path d="M13.56 32.3962C14.2216 32.3962 14.7579 31.8599 14.7579 31.1983C14.7579 30.5368 14.2216 30.0005 13.56 30.0005C12.8985 30.0005 12.3622 30.5368 12.3622 31.1983C12.3622 31.8599 12.8985 32.3962 13.56 32.3962Z" fill="#E5E5E5"/>
<path d="M68.7105 71.5369H16.7161V73.3723H68.7105V71.5369Z" fill="#E5E5E5"/>
<path d="M68.7105 76.309H16.7161V78.1444H68.7105V76.309Z" fill="#E5E5E5"/>
<path d="M68.7105 81.0811H16.7161V82.9165H68.7105V81.0811Z" fill="#E5E5E5"/>
<path d="M13.56 73.7216C14.2216 73.7216 14.7579 73.1854 14.7579 72.5238C14.7579 71.8623 14.2216 71.326 13.56 71.326C12.8985 71.326 12.3622 71.8623 12.3622 72.5238C12.3622 73.1854 12.8985 73.7216 13.56 73.7216Z" fill="#E5E5E5"/>
<path d="M155.854 128.16H96.162C96.1091 128.16 96.0583 128.139 96.0209 128.101C95.9834 128.064 95.9624 128.013 95.9624 127.96C95.9624 127.907 95.9834 127.856 96.0209 127.819C96.0583 127.782 96.1091 127.76 96.162 127.76H155.854C155.907 127.76 155.958 127.782 155.996 127.819C156.033 127.856 156.054 127.907 156.054 127.96C156.054 128.013 156.033 128.064 155.996 128.101C155.958 128.139 155.907 128.16 155.854 128.16Z" fill="#CBCBCB"/>
</g>
<defs>
<clipPath id="clip0">
<rect width="156.054" height="128.211" fill="white"/>
</clipPath>
</defs>
</svg>
